<svg xmlns="http://www.w3.org/2000/svg" viewBox="0 0 4125.39 4125.39"><defs><style>.cls-1{fill:none;}.cls-2{fill:#5c57a2;}.cls-3{fill:#494a8a;}.cls-4{fill:#fbcc9b;}.cls-5{fill:#f8b269;}.cls-6{fill:#2d2d2d;}.cls-7{fill:#191919;}.cls-8{fill:#fee6cd;}.cls-9{fill:#5b5b5b;}.cls-10{fill:#454545;}</style></defs><g id="Laag_2" data-name="Laag 2"><g id="Laag_1-2" data-name="Laag 1"><rect class="cls-1" width="4125.39" height="4125.39"/><path class="cls-2" d="M6656.49-5073.92h-210l-210,210h-210l-210-210h-210c-522,0-945.14,423.15-945.14,945.14v112H7601.63v-112C7601.63-4650.77,7178.48-5073.92,6656.49-5073.92Z" transform="translate(-4068.72 7871.73)"/><path class="cls-3" d="M7601.63-4128.78c0-522-423.15-945.14-945.14-945.14h-210l-210,210h-105v847.13H7601.63Z" transform="translate(-4068.72 7871.73)"/><path class="cls-4" d="M6131.42-5389H5816.37v525.08c0,174,141.05,315.05,315.05,315.05s315-141.05,315-315.05V-5389Z" transform="translate(-4068.72 7871.73)"/><path class="cls-5" d="M6446.46-4863.89V-5389h-315v840.13C6305.41-4548.84,6446.46-4689.89,6446.46-4863.89Z" transform="translate(-4068.72 7871.73)"/><path class="cls-6" d="M5293.39-5979.15c11.34,499,371.26,860,808.61,1006l29.41,8.41,29.4-8.41c438.36-146.41,797.3-507.82,808.63-1006h-1676Z" transform="translate(-4068.72 7871.73)"/><path class="cls-6" d="M6236.43-7601.29h-210c-409.95,0-735.11,343.36-735.11,742.11v170.12H6971.54v-170.12C6971.54-7257.84,6646.45-7601.29,6236.43-7601.29Z" transform="translate(-4068.72 7871.73)"/><path class="cls-7" d="M6971.54-6859.18c0-398.66-325.09-742.11-735.11-742.11h-105v912.23h840.12Z" transform="translate(-4068.72 7871.73)"/><path class="cls-7" d="M6969.44-5979.15h-838V-4964.7l29.4-8.4c438.35-146.42,797.29-507.83,808.62-1006Z" transform="translate(-4068.72 7871.73)"/><path class="cls-8" d="M6446.46-6951.6c-121.81,62-218.44,92.94-315,92.94s-193.23-31-315.05-92.94l-525.08,262.54V-6017c0,12.6,0,25.2,2.1,37.81l523,262.54c121.82-62,218.42-92.94,315.05-92.94s193.23,31,315,92.94l523-262.54c2.1-12.61,2.1-25.21,2.1-39.91v-670Z" transform="translate(-4068.72 7871.73)"/><path class="cls-4" d="M6969.44-5979.15c2.1-12.61,2.1-25.21,2.1-39.91v-670L6446.46-6951.6c-121.81,62-218.44,92.94-315,92.94v1049.11c96.6,0,193.23,31,315,92.94Z" transform="translate(-4068.72 7871.73)"/><path class="cls-9" d="M5711.35-6334.11h210v210h-210Z" transform="translate(-4068.72 7871.73)"/><path class="cls-10" d="M6341.45-6334.11h210v210h-210Z" transform="translate(-4068.72 7871.73)"/></g></g></svg>